<svg xmlns="http://www.w3.org/2000/svg" xmlns:xlink="http://www.w3.org/1999/xlink" width="500" zoomAndPan="magnify" viewBox="0 0 375 374.999991" height="500" preserveAspectRatio="xMidYMid meet" version="1.0"><defs><clipPath id="id1"><path d="M 227 128 L 303.574219 128 L 303.574219 288 L 227 288 Z M 227 128 " clip-rule="nonzero"/></clipPath><clipPath id="id2"><path d="M 289 132 L 303.574219 132 L 303.574219 148 L 289 148 Z M 289 132 " clip-rule="nonzero"/></clipPath><clipPath id="id3"><path d="M 71.074219 128 L 147 128 L 147 288 L 71.074219 288 Z M 71.074219 128 " clip-rule="nonzero"/></clipPath><clipPath id="id4"><path d="M 145 104 L 182 104 L 182 297.226562 L 145 297.226562 Z M 145 104 " clip-rule="nonzero"/></clipPath><clipPath id="id5"><path d="M 71.074219 132 L 85 132 L 85 148 L 71.074219 148 Z M 71.074219 132 " clip-rule="nonzero"/></clipPath></defs><g clip-path="url(#id1)"><path fill="rgb(0%, 0%, 0%)" d="M 261 287.210938 C 260.648438 287.210938 260.3125 287.035156 260.117188 286.714844 C 253.777344 276.265625 250.960938 263.816406 252.195312 251.660156 C 253.058594 243.1875 255.921875 234.828125 260.46875 227.5 C 262.847656 223.667969 265.773438 220.242188 268.605469 216.925781 C 271.035156 214.078125 273.550781 211.136719 275.664062 207.992188 C 283.648438 196.101562 286.1875 184.929688 289.132812 171.996094 C 291.640625 160.964844 294.480469 148.464844 301.25 133.101562 C 301.40625 132.746094 301.40625 132.339844 301.25 131.984375 C 301.101562 131.660156 300.84375 131.414062 300.511719 131.304688 C 298.839844 130.746094 296.792969 130.789062 294.898438 131.417969 C 292.148438 132.335938 289.789062 134.28125 287.847656 136.0625 C 277.644531 145.417969 270.527344 158.046875 267.796875 171.617188 C 267.703125 172.074219 267.320312 172.410156 266.855469 172.441406 C 258.238281 173.039062 249.710938 176.796875 242.855469 183.015625 C 236 189.234375 231.429688 197.355469 230 205.878906 C 229.902344 206.441406 229.375 206.816406 228.8125 206.71875 C 228.25 206.625 227.871094 206.09375 227.96875 205.53125 C 229.480469 196.558594 234.277344 188.015625 241.472656 181.484375 C 248.460938 175.144531 257.121094 171.238281 265.933594 170.441406 C 268.859375 156.734375 276.125 144.011719 286.457031 134.539062 C 288.558594 132.609375 291.132812 130.496094 294.25 129.457031 C 296.59375 128.679688 299.046875 128.636719 301.167969 129.34375 C 302.050781 129.636719 302.75 130.277344 303.132812 131.144531 C 303.523438 132.027344 303.523438 133.039062 303.132812 133.925781 C 296.441406 149.109375 293.625 161.507812 291.136719 172.445312 C 288.148438 185.582031 285.570312 196.929688 277.371094 209.132812 C 275.191406 212.378906 272.640625 215.367188 270.171875 218.261719 C 267.390625 221.519531 264.511719 224.886719 262.21875 228.585938 C 257.832031 235.652344 255.074219 243.707031 254.246094 251.871094 C 253.050781 263.585938 255.765625 275.582031 261.875 285.648438 C 262.167969 286.136719 262.011719 286.769531 261.527344 287.0625 C 261.367188 287.160156 261.183594 287.210938 261 287.210938 Z M 261 287.210938 " fill-opacity="1" fill-rule="nonzero"/></g><path fill="rgb(0%, 0%, 0%)" d="M 207.273438 294.8125 C 206.753906 294.8125 206.304688 294.421875 206.25 293.894531 C 204.902344 281.335938 202.59375 268.78125 199.394531 256.578125 C 198.921875 254.765625 198.414062 252.921875 197.925781 251.140625 C 195.96875 243.992188 193.949219 236.605469 193.238281 229.082031 C 191.527344 210.886719 202.136719 194 211.496094 179.101562 C 212.011719 178.28125 212.519531 177.46875 213.019531 176.667969 C 221.875 162.511719 221.070312 147.449219 220.226562 131.503906 C 219.980469 126.949219 219.730469 122.238281 219.730469 117.597656 C 219.730469 114.824219 219.828125 111.898438 220.980469 109.269531 C 222.347656 106.144531 225.089844 104.089844 227.96875 104.035156 C 227.972656 104.035156 227.984375 104.035156 227.988281 104.035156 C 228.550781 104.035156 229.003906 104.480469 229.019531 105.042969 C 229.027344 105.613281 228.578125 106.082031 228.011719 106.09375 C 225.648438 106.136719 223.722656 108.136719 222.867188 110.09375 C 221.878906 112.359375 221.796875 114.933594 221.796875 117.589844 C 221.796875 122.183594 222.042969 126.859375 222.28125 131.390625 C 223.113281 146.957031 223.964844 163.050781 214.769531 177.761719 C 214.265625 178.566406 213.757812 179.375 213.242188 180.195312 C 204.054688 194.820312 193.644531 211.394531 195.292969 228.890625 C 195.984375 236.238281 197.988281 243.539062 199.914062 250.597656 C 200.402344 252.382812 200.910156 254.234375 201.390625 256.058594 C 204.613281 268.359375 206.9375 281.011719 208.300781 293.671875 C 208.359375 294.238281 207.949219 294.746094 207.382812 294.804688 C 207.347656 294.8125 207.308594 294.8125 207.273438 294.8125 Z M 207.273438 294.8125 " fill-opacity="1" fill-rule="nonzero"/><path fill="rgb(0%, 0%, 0%)" d="M 260.996094 156.214844 C 260.996094 156.214844 260.992188 156.214844 260.984375 156.214844 C 260.414062 156.207031 259.957031 155.742188 259.964844 155.175781 C 260.078125 139.378906 257.105469 124.515625 253.957031 108.78125 C 253.484375 106.429688 253.011719 104.066406 252.550781 101.703125 L 252.515625 101.523438 C 251.605469 96.875 250.933594 92.273438 252.179688 90.105469 C 253.210938 88.304688 254.839844 87.300781 256.621094 87.34375 C 258.808594 87.402344 260.882812 88.945312 262.171875 91.476562 C 264.996094 97.035156 268.363281 105.871094 269.976562 110.117188 L 270.09375 110.421875 C 270.386719 111.195312 270.777344 112.210938 271.207031 113.226562 C 275.457031 123.308594 277.773438 131.304688 280.558594 142.527344 C 280.695312 143.078125 280.359375 143.636719 279.808594 143.773438 C 279.253906 143.914062 278.699219 143.578125 278.558594 143.023438 C 275.796875 131.902344 273.503906 123.988281 269.304688 114.027344 C 268.863281 112.980469 268.460938 111.945312 268.164062 111.152344 L 268.046875 110.847656 C 266.445312 106.636719 263.109375 97.867188 260.335938 92.40625 C 259.410156 90.585938 257.96875 89.4375 256.570312 89.402344 C 256.546875 89.402344 256.523438 89.402344 256.503906 89.402344 C 255.488281 89.402344 254.613281 89.996094 253.964844 91.125 C 252.933594 92.925781 254.140625 99.097656 254.535156 101.128906 L 254.570312 101.308594 C 255.03125 103.671875 255.507812 106.027344 255.976562 108.375 C 259.007812 123.523438 262.136719 139.183594 262.023438 155.191406 C 262.023438 155.757812 261.5625 156.214844 260.996094 156.214844 Z M 260.996094 156.214844 " fill-opacity="1" fill-rule="nonzero"/><path fill="rgb(0%, 0%, 0%)" d="M 246.980469 158.558594 C 246.464844 158.558594 246.015625 158.164062 245.957031 157.640625 C 245.277344 151.539062 244.621094 145.558594 243.976562 139.628906 C 242.066406 122.109375 240.257812 105.558594 237.921875 87.8125 C 237.195312 82.28125 239.40625 79.453125 241.523438 78.710938 C 245.066406 77.472656 248.558594 80.367188 250.457031 83.789062 C 252.089844 86.742188 252.835938 89.445312 253.574219 92.414062 C 253.710938 92.96875 253.375 93.527344 252.824219 93.664062 C 252.269531 93.800781 251.707031 93.464844 251.574219 92.914062 C 250.875 90.085938 250.171875 87.519531 248.65625 84.789062 C 247.628906 82.9375 244.957031 79.6875 242.207031 80.65625 C 240.757812 81.160156 239.4375 83.53125 239.96875 87.539062 C 242.304688 105.304688 244.113281 121.871094 246.027344 139.398438 C 246.671875 145.328125 247.324219 151.308594 248.007812 157.40625 C 248.070312 157.972656 247.660156 158.484375 247.09375 158.542969 C 247.054688 158.550781 247.015625 158.558594 246.980469 158.558594 Z M 246.980469 158.558594 " fill-opacity="1" fill-rule="nonzero"/><path fill="rgb(0%, 0%, 0%)" d="M 232.960938 161.1875 C 232.429688 161.1875 231.984375 160.78125 231.933594 160.246094 L 226.765625 101.679688 C 226.519531 98.894531 226.242188 95.734375 227.089844 92.757812 C 228.070312 89.308594 230.597656 86.707031 233.53125 86.117188 C 235.585938 85.703125 238.101562 86.734375 239.933594 88.734375 C 240.316406 89.15625 240.289062 89.808594 239.871094 90.191406 C 239.453125 90.574219 238.796875 90.546875 238.417969 90.128906 C 237.082031 88.667969 235.285156 87.871094 233.9375 88.136719 C 231.753906 88.574219 229.84375 90.609375 229.070312 93.316406 C 228.328125 95.933594 228.578125 98.761719 228.816406 101.496094 L 233.988281 160.0625 C 234.039062 160.628906 233.617188 161.132812 233.050781 161.183594 C 233.023438 161.183594 232.992188 161.1875 232.960938 161.1875 Z M 232.960938 161.1875 " fill-opacity="1" fill-rule="nonzero"/><g clip-path="url(#id2)"><path fill="rgb(0%, 0%, 0%)" d="M 296.917969 147.652344 C 296.714844 147.652344 296.507812 147.59375 296.328125 147.46875 C 294.523438 146.207031 292.546875 145.214844 290.460938 144.519531 C 289.933594 144.347656 289.640625 143.78125 289.796875 143.246094 C 290.511719 140.859375 291.613281 137.828125 293.78125 135.597656 C 296.171875 133.140625 299.511719 132.15625 302.304688 133.097656 C 302.84375 133.277344 303.132812 133.859375 302.953125 134.398438 C 302.773438 134.9375 302.1875 135.226562 301.648438 135.046875 C 299.332031 134.269531 296.769531 135.480469 295.257812 137.035156 C 293.65625 138.683594 292.726562 140.855469 292.0625 142.898438 C 293.988281 143.628906 295.816406 144.589844 297.507812 145.773438 C 297.972656 146.101562 298.085938 146.742188 297.765625 147.210938 C 297.566406 147.5 297.242188 147.652344 296.917969 147.652344 Z M 296.917969 147.652344 " fill-opacity="1" fill-rule="nonzero"/></g><g clip-path="url(#id3)"><path fill="rgb(0%, 0%, 0%)" d="M 113.601562 287.210938 C 113.417969 287.210938 113.234375 287.164062 113.066406 287.058594 C 112.578125 286.765625 112.425781 286.128906 112.722656 285.644531 C 118.832031 275.578125 121.542969 263.582031 120.351562 251.867188 C 119.523438 243.703125 116.765625 235.652344 112.378906 228.582031 C 110.085938 224.882812 107.207031 221.515625 104.425781 218.257812 C 101.957031 215.363281 99.402344 212.375 97.226562 209.128906 C 89.023438 196.921875 86.445312 185.574219 83.457031 172.441406 C 80.972656 161.503906 78.152344 149.101562 71.464844 133.921875 C 71.074219 133.035156 71.078125 132.023438 71.464844 131.140625 C 71.847656 130.273438 72.546875 129.632812 73.429688 129.339844 C 75.546875 128.628906 78.003906 128.671875 80.347656 129.453125 C 83.46875 130.488281 86.035156 132.601562 88.140625 134.53125 C 98.472656 144.003906 105.738281 156.730469 108.660156 170.4375 C 117.472656 171.234375 126.128906 175.140625 133.125 181.480469 C 140.320312 188.011719 145.117188 196.546875 146.628906 205.527344 C 146.722656 206.089844 146.34375 206.621094 145.785156 206.714844 C 145.226562 206.8125 144.695312 206.429688 144.597656 205.875 C 143.160156 197.347656 138.597656 189.230469 131.742188 183.007812 C 124.886719 176.789062 116.363281 173.035156 107.742188 172.4375 C 107.277344 172.402344 106.894531 172.066406 106.800781 171.613281 C 104.074219 158.042969 96.953125 145.414062 86.75 136.058594 C 84.808594 134.273438 82.449219 132.332031 79.695312 131.414062 C 77.800781 130.785156 75.753906 130.742188 74.085938 131.300781 C 73.757812 131.410156 73.496094 131.648438 73.347656 131.980469 C 73.191406 132.335938 73.191406 132.742188 73.347656 133.097656 C 80.117188 148.464844 82.960938 160.960938 85.464844 171.988281 C 88.40625 184.925781 90.949219 196.101562 98.933594 207.988281 C 101.046875 211.136719 103.558594 214.078125 105.992188 216.925781 C 108.824219 220.242188 111.75 223.671875 114.125 227.5 C 118.679688 234.835938 121.539062 243.191406 122.398438 251.660156 C 123.640625 263.816406 120.824219 276.269531 114.480469 286.714844 C 114.289062 287.03125 113.945312 287.210938 113.601562 287.210938 Z M 113.601562 287.210938 " fill-opacity="1" fill-rule="nonzero"/></g><g clip-path="url(#id4)"><path fill="rgb(0%, 0%, 0%)" d="M 167.082031 297.207031 C 167.050781 297.207031 167.015625 297.207031 166.984375 297.203125 C 166.417969 297.148438 166 296.640625 166.058594 296.074219 C 167.378906 282.597656 169.785156 269.136719 173.214844 256.058594 C 173.695312 254.234375 174.203125 252.382812 174.691406 250.59375 C 176.625 243.53125 178.621094 236.234375 179.3125 228.890625 C 180.960938 211.394531 170.550781 194.820312 161.367188 180.195312 C 160.851562 179.375 160.339844 178.566406 159.835938 177.761719 C 150.636719 163.050781 151.492188 146.957031 152.324219 131.390625 C 152.5625 126.867188 152.8125 122.183594 152.8125 117.589844 C 152.8125 114.933594 152.726562 112.359375 151.738281 110.09375 C 150.882812 108.136719 148.957031 106.136719 146.59375 106.09375 C 146.023438 106.082031 145.574219 105.613281 145.585938 105.042969 C 145.597656 104.476562 146.074219 104.007812 146.636719 104.035156 C 149.515625 104.089844 152.257812 106.144531 153.625 109.269531 C 154.777344 111.898438 154.875 114.824219 154.875 117.597656 C 154.875 122.242188 154.625 126.953125 154.378906 131.507812 C 153.535156 147.453125 152.734375 162.515625 161.585938 176.671875 C 162.089844 177.480469 162.597656 178.289062 163.113281 179.109375 C 172.476562 194.011719 183.082031 210.898438 181.371094 229.089844 C 180.660156 236.617188 178.640625 244.003906 176.683594 251.144531 C 176.195312 252.933594 175.6875 254.773438 175.214844 256.589844 C 171.816406 269.558594 169.425781 282.914062 168.113281 296.28125 C 168.054688 296.8125 167.605469 297.207031 167.082031 297.207031 Z M 167.082031 297.207031 " fill-opacity="1" fill-rule="nonzero"/></g><path fill="rgb(0%, 0%, 0%)" d="M 113.605469 156.214844 C 113.039062 156.214844 112.578125 155.757812 112.574219 155.191406 C 112.460938 139.183594 115.589844 123.523438 118.621094 108.375 C 119.089844 106.023438 119.558594 103.671875 120.023438 101.308594 L 120.0625 101.128906 C 120.457031 99.097656 121.664062 92.925781 120.632812 91.125 C 119.984375 89.996094 119.109375 89.402344 118.089844 89.402344 C 118.066406 89.402344 118.042969 89.402344 118.027344 89.402344 C 116.625 89.441406 115.1875 90.59375 114.261719 92.410156 C 111.480469 97.882812 108.140625 106.652344 106.539062 110.871094 L 106.433594 111.15625 C 106.109375 112.003906 105.722656 113.007812 105.292969 114.03125 C 101.097656 123.988281 98.804688 131.90625 96.035156 143.027344 C 95.898438 143.582031 95.339844 143.917969 94.789062 143.78125 C 94.238281 143.640625 93.902344 143.085938 94.039062 142.53125 C 96.828125 131.304688 99.144531 123.308594 103.390625 113.230469 C 103.808594 112.238281 104.1875 111.253906 104.503906 110.425781 L 104.609375 110.144531 C 106.226562 105.894531 109.589844 97.046875 112.417969 91.480469 C 113.703125 88.949219 115.78125 87.40625 117.972656 87.351562 C 119.785156 87.300781 121.386719 88.3125 122.417969 90.109375 C 123.667969 92.28125 122.949219 97.105469 122.082031 101.535156 L 122.046875 101.699219 C 121.585938 104.066406 121.109375 106.425781 120.640625 108.777344 C 117.492188 124.511719 114.523438 139.378906 114.632812 155.171875 C 114.636719 155.742188 114.175781 156.207031 113.609375 156.207031 C 113.609375 156.214844 113.605469 156.214844 113.605469 156.214844 Z M 113.605469 156.214844 " fill-opacity="1" fill-rule="nonzero"/><path fill="rgb(0%, 0%, 0%)" d="M 127.621094 158.558594 C 127.585938 158.558594 127.542969 158.558594 127.507812 158.550781 C 126.941406 158.488281 126.535156 157.976562 126.59375 157.414062 C 127.277344 151.3125 127.929688 145.328125 128.574219 139.398438 C 130.488281 121.871094 132.292969 105.308594 134.632812 87.542969 C 135.160156 83.539062 133.839844 81.164062 132.394531 80.660156 C 129.644531 79.691406 126.972656 82.941406 125.945312 84.792969 C 124.429688 87.523438 123.726562 90.089844 123.027344 92.917969 C 122.886719 93.46875 122.332031 93.804688 121.777344 93.667969 C 121.226562 93.53125 120.890625 92.972656 121.027344 92.421875 C 121.765625 89.445312 122.511719 86.746094 124.144531 83.796875 C 126.042969 80.375 129.542969 77.472656 133.078125 78.714844 C 135.191406 79.457031 137.40625 82.285156 136.679688 87.816406 C 134.34375 105.558594 132.539062 122.105469 130.628906 139.625 C 129.980469 145.558594 129.328125 151.542969 128.644531 157.644531 C 128.589844 158.164062 128.140625 158.558594 127.621094 158.558594 Z M 127.621094 158.558594 " fill-opacity="1" fill-rule="nonzero"/><path fill="rgb(0%, 0%, 0%)" d="M 141.640625 161.1875 C 141.609375 161.1875 141.582031 161.1875 141.550781 161.183594 C 140.984375 161.132812 140.5625 160.628906 140.613281 160.0625 L 145.785156 101.496094 C 146.023438 98.761719 146.277344 95.929688 145.53125 93.316406 C 144.757812 90.605469 142.851562 88.570312 140.667969 88.136719 C 139.324219 87.871094 137.523438 88.667969 136.191406 90.128906 C 135.808594 90.546875 135.152344 90.578125 134.734375 90.191406 C 134.316406 89.808594 134.289062 89.15625 134.671875 88.734375 C 136.503906 86.734375 139.015625 85.707031 141.074219 86.117188 C 144.007812 86.699219 146.535156 89.308594 147.515625 92.757812 C 148.363281 95.734375 148.085938 98.894531 147.839844 101.679688 L 142.667969 160.246094 C 142.617188 160.78125 142.164062 161.1875 141.640625 161.1875 Z M 141.640625 161.1875 " fill-opacity="1" fill-rule="nonzero"/><g clip-path="url(#id5)"><path fill="rgb(0%, 0%, 0%)" d="M 77.683594 147.652344 C 77.359375 147.652344 77.039062 147.5 76.835938 147.210938 C 76.511719 146.746094 76.625 146.101562 77.09375 145.773438 C 78.785156 144.59375 80.613281 143.632812 82.539062 142.898438 C 81.871094 140.855469 80.945312 138.683594 79.34375 137.035156 C 77.835938 135.480469 75.277344 134.269531 72.953125 135.046875 C 72.410156 135.234375 71.828125 134.9375 71.648438 134.398438 C 71.46875 133.859375 71.757812 133.277344 72.296875 133.097656 C 75.082031 132.15625 78.429688 133.136719 80.820312 135.597656 C 82.992188 137.828125 84.089844 140.855469 84.800781 143.246094 C 84.964844 143.78125 84.667969 144.339844 84.140625 144.515625 C 82.054688 145.210938 80.078125 146.203125 78.273438 147.464844 C 78.09375 147.59375 77.886719 147.652344 77.683594 147.652344 Z M 77.683594 147.652344 " fill-opacity="1" fill-rule="nonzero"/></g></svg>