<svg xmlns="http://www.w3.org/2000/svg" xmlns:xlink="http://www.w3.org/1999/xlink" width="500" zoomAndPan="magnify" viewBox="0 0 375 374.999991" height="500" preserveAspectRatio="xMidYMid meet" version="1.0"><defs><clipPath id="id1"><path d="M 76.726562 65.40625 L 264 65.40625 L 264 309.90625 L 76.726562 309.90625 Z M 76.726562 65.40625 " clip-rule="nonzero"/></clipPath><clipPath id="id2"><path d="M 110 65.40625 L 297.976562 65.40625 L 297.976562 309.90625 L 110 309.90625 Z M 110 65.40625 " clip-rule="nonzero"/></clipPath></defs><path fill="rgb(100%, 100%, 100%)" d="M 80.386719 92.953125 L 220.558594 66.628906 C 220.960938 66.550781 221.359375 66.5625 221.757812 66.65625 C 222.152344 66.75 222.519531 66.921875 222.855469 67.167969 C 223.1875 67.417969 223.464844 67.726562 223.683594 68.09375 C 223.902344 68.457031 224.046875 68.855469 224.117188 69.28125 L 258.140625 274.785156 C 258.210938 275.214844 258.203125 275.640625 258.113281 276.0625 C 258.027344 276.488281 257.863281 276.875 257.628906 277.230469 C 257.398438 277.585938 257.109375 277.882812 256.765625 278.113281 C 256.421875 278.347656 256.046875 278.503906 255.648438 278.578125 L 115.476562 304.902344 C 115.078125 304.976562 114.675781 304.96875 114.28125 304.875 C 113.882812 304.78125 113.515625 304.609375 113.183594 304.359375 C 112.847656 304.109375 112.570312 303.800781 112.351562 303.4375 C 112.132812 303.070312 111.988281 302.675781 111.917969 302.246094 L 77.894531 96.742188 C 77.824219 96.316406 77.832031 95.890625 77.921875 95.464844 C 78.011719 95.042969 78.171875 94.652344 78.40625 94.296875 C 78.636719 93.941406 78.925781 93.648438 79.269531 93.414062 C 79.613281 93.179688 79.988281 93.027344 80.386719 92.953125 Z M 80.386719 92.953125 " fill-opacity="1" fill-rule="nonzero"/><g clip-path="url(#id1)"><path stroke-linecap="butt" transform="matrix(0.25218, -0.0473591, 0.0444662, 0.268587, 326.132736, 5.304411)" fill="none" stroke-linejoin="miter" d="M -1000.907556 149.84573 L -445.067387 149.845303 C -443.470292 149.83604 -441.945425 150.148546 -440.472786 150.757261 C -439.01517 151.363327 -437.712457 152.232953 -436.577182 153.349387 C -435.459416 154.477276 -434.589278 155.779658 -433.981788 157.253883 C -433.371811 158.714003 -433.069653 160.25074 -433.070338 161.835883 L -433.066353 926.966483 C -433.069526 928.565731 -433.370667 930.097896 -433.984802 931.560328 C -434.5864 933.039514 -435.463584 934.32467 -436.591282 935.449304 C -437.703958 936.576586 -439.004669 937.452558 -440.473419 938.051656 C -441.944655 938.66486 -443.486333 938.974769 -445.065917 938.972576 L -1000.906086 938.973003 C -1002.485671 938.97081 -1004.028049 938.66976 -1005.485664 938.063694 C -1006.958303 937.454979 -1008.261016 936.585353 -1009.378781 935.457463 C -1010.51157 934.326925 -1011.381708 933.024543 -1011.991685 931.564423 C -1012.599175 930.090198 -1012.90382 928.567566 -1012.900648 926.968317 L -1012.904633 161.837718 C -1012.903947 160.252575 -1012.602806 158.72041 -1011.986184 157.243873 C -1011.37205 155.781441 -1010.507402 154.479531 -1009.379704 153.354897 C -1008.267028 152.227615 -1006.968804 151.365748 -1005.497567 150.752545 C -1004.026331 150.139341 -1002.487141 149.843537 -1000.907556 149.84573 Z M -1000.907556 149.84573 " stroke="rgb(0%, 0%, 0%)" stroke-width="4" stroke-opacity="1" stroke-miterlimit="4"/></g><path stroke-linecap="butt" transform="matrix(0.25218, -0.0473591, 0.0444662, 0.268587, 326.132736, 5.304411)" fill="none" stroke-linejoin="miter" d="M -488.830105 767.43545 L -916.926879 767.446825 " stroke="rgb(0%, 0%, 0%)" stroke-width="2.375" stroke-opacity="1" stroke-miterlimit="4"/><path stroke-linecap="butt" transform="matrix(0.25218, -0.0473591, 0.0444662, 0.268587, 326.132736, 5.304411)" fill="none" stroke-linejoin="miter" d="M -488.831452 718.248395 L -916.925739 718.245664 " stroke="rgb(0%, 0%, 0%)" stroke-width="2.375" stroke-opacity="1" stroke-miterlimit="4"/><path stroke-linecap="butt" transform="matrix(0.25218, -0.0473591, 0.0444662, 0.268587, 326.132736, 5.304411)" fill="none" stroke-linejoin="miter" d="M -488.832799 669.061339 L -916.927086 669.058609 " stroke="rgb(0%, 0%, 0%)" stroke-width="2.375" stroke-opacity="1" stroke-miterlimit="4"/><path stroke-linecap="butt" transform="matrix(0.25218, -0.0473591, 0.0444662, 0.268587, 326.132736, 5.304411)" fill="none" stroke-linejoin="miter" d="M -488.834146 619.874283 L -916.928433 619.871553 " stroke="rgb(0%, 0%, 0%)" stroke-width="2.375" stroke-opacity="1" stroke-miterlimit="4"/><path stroke-linecap="butt" transform="matrix(0.25218, -0.0473591, 0.0444662, 0.268587, 326.132736, 5.304411)" fill="none" stroke-linejoin="miter" d="M -488.833005 570.673123 L -916.929779 570.684498 " stroke="rgb(0%, 0%, 0%)" stroke-width="2.375" stroke-opacity="1" stroke-miterlimit="4"/><path stroke-linecap="butt" transform="matrix(0.25218, -0.0473591, 0.0444662, 0.268587, 326.132736, 5.304411)" fill="none" stroke-linejoin="miter" d="M -488.834352 521.486067 L -916.928639 521.483337 " stroke="rgb(0%, 0%, 0%)" stroke-width="2.375" stroke-opacity="1" stroke-miterlimit="4"/><path stroke-linecap="butt" transform="matrix(0.25218, -0.0473591, 0.0444662, 0.268587, 326.132736, 5.304411)" fill="none" stroke-linejoin="miter" d="M -488.835699 472.299012 L -916.929986 472.296281 " stroke="rgb(0%, 0%, 0%)" stroke-width="2.375" stroke-opacity="1" stroke-miterlimit="4"/><path stroke-linecap="butt" transform="matrix(0.25218, -0.0473591, 0.0444662, 0.268587, 326.132736, 5.304411)" fill="none" stroke-linejoin="miter" d="M -488.837046 423.111956 L -916.931333 423.109226 " stroke="rgb(0%, 0%, 0%)" stroke-width="2.375" stroke-opacity="1" stroke-miterlimit="4"/><path stroke-linecap="butt" transform="matrix(0.25218, -0.0473591, 0.0444662, 0.268587, 326.132736, 5.304411)" fill="none" stroke-linejoin="miter" d="M -488.838393 373.9249 L -916.93268 373.92217 " stroke="rgb(0%, 0%, 0%)" stroke-width="2.375" stroke-opacity="1" stroke-miterlimit="4"/><path stroke-linecap="butt" transform="matrix(0.25218, -0.0473591, 0.0444662, 0.268587, 326.132736, 5.304411)" fill="none" stroke-linejoin="miter" d="M -488.82223 324.726389 L -916.934027 324.735115 " stroke="rgb(0%, 0%, 0%)" stroke-width="2.375" stroke-opacity="1" stroke-miterlimit="4"/><path stroke-linecap="butt" transform="matrix(0.25218, -0.0473591, 0.0444662, 0.268587, 326.132736, 5.304411)" fill="none" stroke-linejoin="miter" d="M -488.823577 275.539333 L -916.932887 275.533954 " stroke="rgb(0%, 0%, 0%)" stroke-width="2.375" stroke-opacity="1" stroke-miterlimit="4"/><path stroke-linecap="butt" transform="matrix(0.25218, -0.0473591, 0.0444662, 0.268587, 326.132736, 5.304411)" fill="none" stroke-linejoin="miter" d="M -488.824924 226.352278 L -916.934234 226.346898 " stroke="rgb(0%, 0%, 0%)" stroke-width="2.375" stroke-opacity="1" stroke-miterlimit="4"/><path stroke-linecap="butt" transform="matrix(0.25218, -0.0473591, 0.0444662, 0.268587, 326.132736, 5.304411)" fill="none" stroke-linejoin="miter" d="M -488.829898 865.823666 L -916.924185 865.820936 " stroke="rgb(0%, 0%, 0%)" stroke-width="2.375" stroke-opacity="1" stroke-miterlimit="4"/><path stroke-linecap="butt" transform="matrix(0.25218, -0.0473591, 0.0444662, 0.268587, 326.132736, 5.304411)" fill="none" stroke-linejoin="miter" d="M -488.831245 816.636611 L -916.925532 816.633881 " stroke="rgb(0%, 0%, 0%)" stroke-width="2.375" stroke-opacity="1" stroke-miterlimit="4"/><path stroke-linecap="butt" transform="matrix(0.256071, 0, 0, 0.27273, 420.801049, -7.344594)" fill-opacity="1" fill="rgb(100%, 100%, 100%)" fill-rule="nonzero" stroke-linejoin="miter" d="M -1184.99261 313.485245 L -629.176482 313.485245 C -627.57475 313.485245 -626.049292 313.800345 -624.584851 314.401901 C -623.105156 315.017779 -621.808516 315.877145 -620.679677 317.008642 C -619.566092 318.125817 -618.696581 319.429188 -618.086397 320.904432 C -617.476214 322.365353 -617.171122 323.897888 -617.171122 325.487714 L -617.171122 1090.623634 C -617.171122 1092.21346 -617.476214 1093.745994 -618.086397 1095.206916 C -618.696581 1096.682159 -619.566092 1097.98553 -620.679677 1099.102705 C -621.808516 1100.234203 -623.105156 1101.093568 -624.584851 1101.709447 C -626.049292 1102.311002 -627.57475 1102.626103 -629.176482 1102.626103 L -1184.99261 1102.626103 C -1186.594342 1102.626103 -1188.1198 1102.311002 -1189.599495 1101.709447 C -1191.063936 1101.093568 -1192.360576 1100.234203 -1193.489415 1099.102705 C -1194.603 1097.98553 -1195.472511 1096.682159 -1196.082695 1095.206916 C -1196.692878 1093.745994 -1196.99797 1092.21346 -1196.99797 1090.623634 L -1196.99797 325.487714 C -1196.99797 323.897888 -1196.692878 322.365353 -1196.082695 320.904432 C -1195.472511 319.429188 -1194.603 318.125817 -1193.489415 317.008642 C -1192.360576 315.877145 -1191.063936 315.017779 -1189.599495 314.401901 C -1188.1198 313.800345 -1186.594342 313.485245 -1184.99261 313.485245 Z M -1184.99261 313.485245 " stroke="rgb(0%, 0%, 0%)" stroke-width="4" stroke-opacity="1" stroke-miterlimit="4"/><path stroke-linecap="butt" transform="matrix(0.256071, 0, 0, 0.27273, 420.801049, -7.344594)" fill="none" stroke-linejoin="miter" d="M -673.018165 931.096783 L -1101.122891 931.096783 " stroke="rgb(0%, 0%, 0%)" stroke-width="2.375" stroke-opacity="1" stroke-miterlimit="4"/><path stroke-linecap="butt" transform="matrix(0.256071, 0, 0, 0.27273, 420.801049, -7.344594)" fill="none" stroke-linejoin="miter" d="M -673.018165 881.898118 L -1101.122891 881.898118 " stroke="rgb(0%, 0%, 0%)" stroke-width="2.375" stroke-opacity="1" stroke-miterlimit="4"/><path stroke-linecap="butt" transform="matrix(0.256071, 0, 0, 0.27273, 420.801049, -7.344594)" fill="none" stroke-linejoin="miter" d="M -673.018165 832.713776 L -1101.122891 832.713776 " stroke="rgb(0%, 0%, 0%)" stroke-width="2.375" stroke-opacity="1" stroke-miterlimit="4"/><path stroke-linecap="butt" transform="matrix(0.256071, 0, 0, 0.27273, 420.801049, -7.344594)" fill="none" stroke-linejoin="miter" d="M -673.018165 783.515111 L -1101.122891 783.515111 " stroke="rgb(0%, 0%, 0%)" stroke-width="2.375" stroke-opacity="1" stroke-miterlimit="4"/><path stroke-linecap="butt" transform="matrix(0.256071, 0, 0, 0.27273, 420.801049, -7.344594)" fill="none" stroke-linejoin="miter" d="M -673.018165 734.330769 L -1101.122891 734.330769 " stroke="rgb(0%, 0%, 0%)" stroke-width="2.375" stroke-opacity="1" stroke-miterlimit="4"/><path stroke-linecap="butt" transform="matrix(0.256071, 0, 0, 0.27273, 420.801049, -7.344594)" fill="none" stroke-linejoin="miter" d="M -673.018165 685.146426 L -1101.122891 685.146426 " stroke="rgb(0%, 0%, 0%)" stroke-width="2.375" stroke-opacity="1" stroke-miterlimit="4"/><path stroke-linecap="butt" transform="matrix(0.256071, 0, 0, 0.27273, 420.801049, -7.344594)" fill="none" stroke-linejoin="miter" d="M -673.018165 635.947761 L -1101.122891 635.947761 " stroke="rgb(0%, 0%, 0%)" stroke-width="2.375" stroke-opacity="1" stroke-miterlimit="4"/><path stroke-linecap="butt" transform="matrix(0.256071, 0, 0, 0.27273, 420.801049, -7.344594)" fill="none" stroke-linejoin="miter" d="M -673.018165 586.763419 L -1101.122891 586.763419 " stroke="rgb(0%, 0%, 0%)" stroke-width="2.375" stroke-opacity="1" stroke-miterlimit="4"/><path stroke-linecap="butt" transform="matrix(0.256071, 0, 0, 0.27273, 420.801049, -7.344594)" fill="none" stroke-linejoin="miter" d="M -673.018165 537.564754 L -1101.122891 537.564754 " stroke="rgb(0%, 0%, 0%)" stroke-width="2.375" stroke-opacity="1" stroke-miterlimit="4"/><path stroke-linecap="butt" transform="matrix(0.256071, 0, 0, 0.27273, 420.801049, -7.344594)" fill="none" stroke-linejoin="miter" d="M -673.018165 488.380412 L -1101.122891 488.380412 " stroke="rgb(0%, 0%, 0%)" stroke-width="2.375" stroke-opacity="1" stroke-miterlimit="4"/><path stroke-linecap="butt" transform="matrix(0.256071, 0, 0, 0.27273, 420.801049, -7.344594)" fill="none" stroke-linejoin="miter" d="M -673.018165 439.196069 L -1101.122891 439.196069 " stroke="rgb(0%, 0%, 0%)" stroke-width="2.375" stroke-opacity="1" stroke-miterlimit="4"/><path stroke-linecap="butt" transform="matrix(0.256071, 0, 0, 0.27273, 420.801049, -7.344594)" fill="none" stroke-linejoin="miter" d="M -673.018165 389.997404 L -1101.122891 389.997404 " stroke="rgb(0%, 0%, 0%)" stroke-width="2.375" stroke-opacity="1" stroke-miterlimit="4"/><path stroke-linecap="butt" transform="matrix(0.256071, 0, 0, 0.27273, 420.801049, -7.344594)" fill="none" stroke-linejoin="miter" d="M -673.018165 1029.494113 L -1101.122891 1029.494113 " stroke="rgb(0%, 0%, 0%)" stroke-width="2.375" stroke-opacity="1" stroke-miterlimit="4"/><path stroke-linecap="butt" transform="matrix(0.256071, 0, 0, 0.27273, 420.801049, -7.344594)" fill="none" stroke-linejoin="miter" d="M -673.018165 980.281126 L -1101.122891 980.281126 " stroke="rgb(0%, 0%, 0%)" stroke-width="2.375" stroke-opacity="1" stroke-miterlimit="4"/><path fill="rgb(100%, 100%, 100%)" d="M 154.082031 70.484375 L 294.25 96.808594 C 294.652344 96.882812 295.027344 97.035156 295.371094 97.269531 C 295.714844 97.503906 296 97.796875 296.234375 98.152344 C 296.46875 98.507812 296.628906 98.898438 296.71875 99.320312 C 296.804688 99.746094 296.816406 100.171875 296.746094 100.597656 L 262.722656 306.101562 C 262.652344 306.53125 262.507812 306.925781 262.289062 307.292969 C 262.070312 307.660156 261.792969 307.964844 261.457031 308.214844 C 261.125 308.464844 260.757812 308.636719 260.359375 308.730469 C 259.964844 308.824219 259.5625 308.832031 259.164062 308.757812 L 118.992188 282.433594 C 118.589844 282.359375 118.21875 282.203125 117.875 281.96875 C 117.53125 281.738281 117.242188 281.441406 117.007812 281.085938 C 116.777344 280.730469 116.613281 280.34375 116.527344 279.917969 C 116.4375 279.496094 116.429688 279.070312 116.5 278.640625 L 150.523438 73.136719 C 150.59375 72.710938 150.738281 72.3125 150.957031 71.949219 C 151.175781 71.582031 151.453125 71.273438 151.785156 71.023438 C 152.121094 70.777344 152.484375 70.605469 152.882812 70.511719 C 153.28125 70.417969 153.679688 70.40625 154.082031 70.484375 Z M 154.082031 70.484375 " fill-opacity="1" fill-rule="nonzero"/><g clip-path="url(#id2)"><path stroke-linecap="butt" transform="matrix(0.25218, 0.0473591, -0.0444662, 0.268587, 514.027579, -2.22449)" fill="none" stroke-linejoin="miter" d="M -1338.001253 506.634565 L -782.176107 506.637641 C -780.581499 506.632799 -779.042309 506.928603 -777.571072 507.541806 C -776.099835 508.15501 -774.816634 509.019525 -773.688936 510.144159 C -772.561238 511.268793 -771.69659 512.570703 -771.082455 514.033135 C -770.480857 515.512321 -770.164692 517.041836 -770.164007 518.62698 L -770.167992 1283.757579 C -770.164819 1285.356828 -770.469465 1286.879459 -771.076955 1288.353685 C -771.684444 1289.82791 -772.55707 1291.116186 -773.689858 1292.246725 C -774.807624 1293.374614 -776.110337 1294.244241 -777.582976 1294.852956 C -779.040591 1295.459022 -780.582969 1295.760072 -782.162554 1295.762265 L -1338.002723 1295.761838 C -1339.59733 1295.766679 -1341.123984 1295.454122 -1342.595221 1294.840918 C -1344.063971 1294.241819 -1345.364682 1293.365848 -1346.49238 1292.241214 C -1347.605055 1291.113932 -1348.482239 1289.828776 -1349.083838 1288.34959 C -1349.697972 1286.887158 -1349.999114 1285.354993 -1350.002286 1283.755745 L -1349.998302 518.625145 C -1349.998987 517.040002 -1349.696828 515.503265 -1349.086852 514.043145 C -1348.479362 512.56892 -1347.609223 511.266538 -1346.491458 510.138648 C -1345.356183 509.022215 -1344.068492 508.155237 -1342.595854 507.546523 C -1341.123215 506.937808 -1339.598347 506.625301 -1338.001253 506.634565 Z M -1338.001253 506.634565 " stroke="rgb(0%, 0%, 0%)" stroke-width="4" stroke-opacity="1" stroke-miterlimit="4"/></g><path stroke-linecap="butt" transform="matrix(0.25218, 0.0473591, -0.0444662, 0.268587, 514.027579, -2.22449)" fill="none" stroke-linejoin="miter" d="M -825.98378 1124.194306 L -1254.093089 1124.199685 " stroke="rgb(0%, 0%, 0%)" stroke-width="2.375" stroke-opacity="1" stroke-miterlimit="4"/><path stroke-linecap="butt" transform="matrix(0.25218, 0.0473591, -0.0444662, 0.268587, 514.027579, -2.22449)" fill="none" stroke-linejoin="miter" d="M -825.98492 1074.993145 L -1254.09423 1074.998524 " stroke="rgb(0%, 0%, 0%)" stroke-width="2.375" stroke-opacity="1" stroke-miterlimit="4"/><path stroke-linecap="butt" transform="matrix(0.25218, 0.0473591, -0.0444662, 0.268587, 514.027579, -2.22449)" fill="none" stroke-linejoin="miter" d="M -825.983673 1025.893369 L -1254.092983 1025.898748 " stroke="rgb(0%, 0%, 0%)" stroke-width="2.375" stroke-opacity="1" stroke-miterlimit="4"/><path stroke-linecap="butt" transform="matrix(0.25218, 0.0473591, -0.0444662, 0.268587, 514.027579, -2.22449)" fill="none" stroke-linejoin="miter" d="M -825.989787 976.663998 L -1254.086561 976.652623 " stroke="rgb(0%, 0%, 0%)" stroke-width="2.375" stroke-opacity="1" stroke-miterlimit="4"/><path stroke-linecap="butt" transform="matrix(0.25218, 0.0473591, -0.0444662, 0.268587, 514.027579, -2.22449)" fill="none" stroke-linejoin="miter" d="M -825.98844 927.476943 L -1254.085214 927.465568 " stroke="rgb(0%, 0%, 0%)" stroke-width="2.375" stroke-opacity="1" stroke-miterlimit="4"/><path stroke-linecap="butt" transform="matrix(0.25218, 0.0473591, -0.0444662, 0.268587, 514.027579, -2.22449)" fill="none" stroke-linejoin="miter" d="M -825.989581 878.275782 L -1254.083868 878.278512 " stroke="rgb(0%, 0%, 0%)" stroke-width="2.375" stroke-opacity="1" stroke-miterlimit="4"/><path stroke-linecap="butt" transform="matrix(0.25218, 0.0473591, -0.0444662, 0.268587, 514.027579, -2.22449)" fill="none" stroke-linejoin="miter" d="M -825.988234 829.088726 L -1254.082521 829.091457 " stroke="rgb(0%, 0%, 0%)" stroke-width="2.375" stroke-opacity="1" stroke-miterlimit="4"/><path stroke-linecap="butt" transform="matrix(0.25218, 0.0473591, -0.0444662, 0.268587, 514.027579, -2.22449)" fill="none" stroke-linejoin="miter" d="M -825.986887 779.901671 L -1254.096196 779.90705 " stroke="rgb(0%, 0%, 0%)" stroke-width="2.375" stroke-opacity="1" stroke-miterlimit="4"/><path stroke-linecap="butt" transform="matrix(0.25218, 0.0473591, -0.0444662, 0.268587, 514.027579, -2.22449)" fill="none" stroke-linejoin="miter" d="M -825.98554 730.714615 L -1254.097337 730.705889 " stroke="rgb(0%, 0%, 0%)" stroke-width="2.375" stroke-opacity="1" stroke-miterlimit="4"/><path stroke-linecap="butt" transform="matrix(0.25218, 0.0473591, -0.0444662, 0.268587, 514.027579, -2.22449)" fill="none" stroke-linejoin="miter" d="M -825.98668 681.513455 L -1254.09599 681.518834 " stroke="rgb(0%, 0%, 0%)" stroke-width="2.375" stroke-opacity="1" stroke-miterlimit="4"/><path stroke-linecap="butt" transform="matrix(0.25218, 0.0473591, -0.0444662, 0.268587, 514.027579, -2.22449)" fill="none" stroke-linejoin="miter" d="M -825.985333 632.326399 L -1254.094643 632.331778 " stroke="rgb(0%, 0%, 0%)" stroke-width="2.375" stroke-opacity="1" stroke-miterlimit="4"/><path stroke-linecap="butt" transform="matrix(0.25218, 0.0473591, -0.0444662, 0.268587, 514.027579, -2.22449)" fill="none" stroke-linejoin="miter" d="M -825.983986 583.139343 L -1254.093296 583.144723 " stroke="rgb(0%, 0%, 0%)" stroke-width="2.375" stroke-opacity="1" stroke-miterlimit="4"/><path stroke-linecap="butt" transform="matrix(0.25218, 0.0473591, -0.0444662, 0.268587, 514.027579, -2.22449)" fill="none" stroke-linejoin="miter" d="M -825.996522 1222.599276 L -1254.090809 1222.602006 " stroke="rgb(0%, 0%, 0%)" stroke-width="2.375" stroke-opacity="1" stroke-miterlimit="4"/><path stroke-linecap="butt" transform="matrix(0.25218, 0.0473591, -0.0444662, 0.268587, 514.027579, -2.22449)" fill="none" stroke-linejoin="miter" d="M -825.997662 1173.398115 L -1254.091949 1173.400846 " stroke="rgb(0%, 0%, 0%)" stroke-width="2.375" stroke-opacity="1" stroke-miterlimit="4"/></svg>