<svg xmlns="http://www.w3.org/2000/svg" xmlns:xlink="http://www.w3.org/1999/xlink" width="500" zoomAndPan="magnify" viewBox="0 0 375 374.999991" height="500" preserveAspectRatio="xMidYMid meet" version="1.0"><defs><clipPath id="id1"><path d="M 281 92.027344 L 318 92.027344 L 318 128 L 281 128 Z M 281 92.027344 " clip-rule="nonzero"/></clipPath><clipPath id="id2"><path d="M 56.25 101 L 308 101 L 308 283.277344 L 56.25 283.277344 Z M 56.25 101 " clip-rule="nonzero"/></clipPath></defs><path fill="rgb(0%, 0%, 0%)" d="M 222.242188 146.148438 L 94.394531 146.148438 C 92.757812 146.148438 91.429688 144.816406 91.429688 143.175781 C 91.429688 141.539062 92.757812 140.207031 94.394531 140.207031 L 222.242188 140.207031 C 223.878906 140.207031 225.207031 141.539062 225.207031 143.175781 C 225.207031 144.816406 223.878906 146.148438 222.242188 146.148438 Z M 222.242188 146.148438 " fill-opacity="1" fill-rule="nonzero"/><path fill="rgb(0%, 0%, 0%)" d="M 199.71875 174.949219 L 94.394531 174.949219 C 92.757812 174.949219 91.429688 173.617188 91.429688 171.980469 C 91.429688 170.339844 92.757812 169.007812 94.394531 169.007812 L 199.71875 169.007812 C 201.355469 169.007812 202.683594 170.339844 202.683594 171.980469 C 202.683594 173.617188 201.355469 174.949219 199.71875 174.949219 Z M 199.71875 174.949219 " fill-opacity="1" fill-rule="nonzero"/><path fill="rgb(0%, 0%, 0%)" d="M 199.71875 203.746094 L 94.394531 203.746094 C 92.757812 203.746094 91.429688 202.414062 91.429688 200.777344 C 91.429688 199.136719 92.757812 197.804688 94.394531 197.804688 L 199.71875 197.804688 C 201.355469 197.804688 202.683594 199.136719 202.683594 200.777344 C 202.683594 202.414062 201.355469 203.746094 199.71875 203.746094 Z M 199.71875 203.746094 " fill-opacity="1" fill-rule="nonzero"/><g clip-path="url(#id1)"><path fill="rgb(0%, 0%, 0%)" d="M 304.773438 127.574219 C 304.015625 127.574219 303.257812 127.285156 302.679688 126.703125 L 282.488281 106.480469 C 281.929688 105.921875 281.617188 105.167969 281.617188 104.378906 C 281.617188 103.589844 281.929688 102.835938 282.488281 102.28125 L 287.648438 97.109375 C 290.902344 93.851562 295.234375 92.050781 299.839844 92.050781 C 304.445312 92.050781 308.777344 93.851562 312.03125 97.109375 C 318.753906 103.84375 318.753906 114.800781 312.03125 121.535156 L 306.871094 126.703125 C 306.292969 127.28125 305.535156 127.574219 304.773438 127.574219 Z M 288.777344 104.378906 L 304.773438 120.402344 L 307.839844 117.335938 C 312.25 112.917969 312.25 105.730469 307.839844 101.3125 C 305.703125 99.175781 302.863281 97.992188 299.84375 97.992188 C 296.824219 97.992188 293.984375 99.171875 291.847656 101.3125 Z M 288.777344 104.378906 " fill-opacity="1" fill-rule="nonzero"/></g><g clip-path="url(#id2)"><path fill="rgb(0%, 0%, 0%)" d="M 306.871094 122.5 L 286.683594 102.28125 C 285.523438 101.121094 283.644531 101.121094 282.488281 102.28125 L 256.222656 128.585938 C 251.695312 116.425781 239.988281 107.738281 226.289062 107.738281 L 88.195312 107.738281 C 70.582031 107.738281 56.25 122.09375 56.25 139.734375 L 56.25 203.402344 C 56.25 220.050781 69.007812 233.765625 85.25 235.265625 L 85.535156 280.296875 C 85.546875 281.507812 86.289062 282.59375 87.410156 283.039062 C 87.765625 283.179688 88.136719 283.25 88.503906 283.25 C 89.300781 283.25 90.082031 282.929688 90.652344 282.324219 L 135.25 235.398438 L 226.289062 235.398438 C 243.898438 235.398438 258.226562 221.042969 258.226562 203.402344 L 258.226562 175.429688 L 306.871094 126.703125 C 308.03125 125.542969 308.03125 123.660156 306.871094 122.5 Z M 252.292969 203.402344 C 252.292969 217.769531 240.628906 229.457031 226.289062 229.457031 L 133.976562 229.457031 C 133.164062 229.457031 132.386719 229.789062 131.828125 230.378906 L 91.421875 272.898438 L 91.160156 232.410156 C 91.148438 230.777344 89.824219 229.457031 88.195312 229.457031 C 73.851562 229.457031 62.183594 217.769531 62.183594 203.402344 L 62.183594 139.734375 C 62.183594 125.367188 73.851562 113.679688 88.195312 113.679688 L 226.289062 113.679688 C 238.417969 113.679688 248.636719 122.046875 251.496094 133.324219 L 213.621094 171.261719 C 213.246094 171.632812 212.980469 172.097656 212.847656 172.609375 L 205.667969 200.023438 C 205.402344 201.039062 205.695312 202.128906 206.4375 202.875 C 207.003906 203.441406 207.757812 203.746094 208.539062 203.746094 C 208.785156 203.746094 209.039062 203.714844 209.289062 203.648438 L 236.660156 196.457031 C 237.164062 196.324219 237.632812 196.058594 238.003906 195.683594 L 252.292969 181.371094 Z M 258.226562 167.027344 L 234.375 190.917969 L 212.695312 196.613281 L 218.378906 174.894531 L 284.582031 108.582031 L 300.578125 124.601562 Z M 258.226562 167.027344 " fill-opacity="1" fill-rule="nonzero"/></g><path fill="rgb(0%, 0%, 0%)" d="M 233.539062 194.617188 C 232.777344 194.617188 232.019531 194.328125 231.441406 193.746094 L 214.773438 177.046875 C 213.617188 175.886719 213.617188 174.007812 214.773438 172.847656 C 215.933594 171.683594 217.8125 171.683594 218.96875 172.847656 L 235.636719 189.542969 C 236.796875 190.703125 236.796875 192.585938 235.636719 193.746094 C 235.058594 194.324219 234.296875 194.617188 233.539062 194.617188 Z M 233.539062 194.617188 " fill-opacity="1" fill-rule="nonzero"/></svg>