<svg xmlns="http://www.w3.org/2000/svg" xmlns:xlink="http://www.w3.org/1999/xlink" width="500" zoomAndPan="magnify" viewBox="0 0 375 374.999991" height="500" preserveAspectRatio="xMidYMid meet" version="1.0"><defs><g/><clipPath id="id1"><path d="M 125.984375 75 L 248.984375 75 L 248.984375 283.945312 L 125.984375 283.945312 Z M 125.984375 75 " clip-rule="nonzero"/></clipPath></defs><rect x="-37.5" width="450" fill="rgb(100%, 100%, 100%)" y="-37.499999" height="449.999989" fill-opacity="1"/><rect x="-37.5" width="450" fill="rgb(98.039246%, 94.898987%, 92.939758%)" y="-37.499999" height="449.999989" fill-opacity="1"/><rect x="-37.5" width="450" fill="rgb(100%, 100%, 100%)" y="-37.499999" height="449.999989" fill-opacity="1"/><rect x="-37.5" width="450" fill="rgb(98.039246%, 94.898987%, 92.939758%)" y="-37.499999" height="449.999989" fill-opacity="1"/><g clip-path="url(#id1)"><path fill="rgb(0%, 0%, 0%)" d="M 227.914062 90.285156 C 214.78125 78.839844 196.867188 73.386719 179.59375 75.640625 C 162.007812 77.933594 146.09375 87.90625 136.273438 102.648438 C 133.121094 107.382812 130.652344 112.566406 128.90625 117.972656 C 126.941406 124.054688 126.160156 130.328125 125.984375 136.699219 C 125.984375 139.757812 125.984375 142.816406 125.984375 145.875 C 125.984375 153.605469 125.984375 161.339844 125.984375 169.070312 C 125.984375 179.316406 125.984375 189.5625 125.984375 199.804688 C 125.984375 210.402344 125.984375 221 125.984375 231.59375 C 125.984375 240.378906 125.984375 249.167969 125.984375 257.953125 C 125.984375 262.765625 125.984375 267.582031 125.984375 272.394531 C 125.984375 272.742188 125.984375 273.09375 125.984375 273.441406 C 125.984375 273.609375 126.046875 273.734375 126.136719 273.828125 C 126.144531 273.832031 126.148438 273.835938 126.152344 273.84375 C 126.160156 273.847656 126.164062 273.851562 126.167969 273.855469 C 126.257812 273.949219 126.386719 274.007812 126.554688 274.007812 C 133.109375 274.007812 139.664062 274.007812 146.21875 274.007812 C 155.59375 274.007812 164.964844 274.007812 174.335938 274.007812 C 175.238281 274.007812 176.140625 274.007812 177.039062 274.007812 C 177.183594 274.007812 177.324219 274.007812 177.46875 274.007812 C 177.511719 274.015625 177.558594 274.015625 177.609375 274.007812 C 178.992188 274.179688 180.351562 274.441406 181.691406 274.804688 C 183.609375 275.511719 185.148438 276.929688 185.910156 278.859375 C 186.304688 280.28125 186.582031 281.722656 186.761719 283.191406 C 186.714844 283.582031 187.019531 283.757812 187.328125 283.726562 C 187.636719 283.757812 187.945312 283.582031 187.898438 283.191406 C 188.078125 281.722656 188.378906 280.28125 188.777344 278.859375 C 189.527344 276.953125 191.035156 275.515625 192.933594 274.820312 C 194.296875 274.449219 195.675781 274.183594 197.078125 274.007812 C 197.128906 274.015625 197.175781 274.015625 197.21875 274.007812 C 203.699219 274.007812 210.179688 274.007812 216.660156 274.007812 C 226.082031 274.007812 235.503906 274.007812 244.925781 274.007812 C 246.097656 274.007812 247.265625 274.007812 248.4375 274.007812 C 248.601562 274.007812 248.730469 273.949219 248.820312 273.855469 C 248.828125 273.851562 248.832031 273.847656 248.835938 273.84375 C 248.839844 273.835938 248.847656 273.832031 248.851562 273.828125 C 248.941406 273.734375 249.003906 273.609375 249.003906 273.441406 C 249.003906 270.386719 249.003906 267.328125 249.003906 264.269531 C 249.003906 256.535156 249.003906 248.804688 249.003906 241.070312 C 249.003906 230.828125 249.003906 220.582031 249.003906 210.335938 C 249.003906 199.742188 249.003906 189.144531 249.003906 178.546875 C 249.003906 169.761719 249.003906 160.976562 249.003906 152.191406 C 249.003906 147.375 249.003906 142.5625 249.003906 137.746094 C 249.003906 137.398438 249.003906 137.050781 249.003906 136.703125 C 248.734375 119.027344 241.292969 101.945312 227.914062 90.285156 Z M 247.867188 145.875 C 247.867188 153.605469 247.867188 161.339844 247.867188 169.070312 C 247.867188 179.316406 247.867188 189.5625 247.867188 199.804688 C 247.867188 210.402344 247.867188 221 247.867188 231.59375 C 247.867188 240.378906 247.867188 249.167969 247.867188 257.953125 C 247.867188 262.765625 247.867188 267.582031 247.867188 272.394531 C 247.867188 272.554688 247.867188 272.714844 247.867188 272.871094 C 241.53125 272.871094 235.191406 272.871094 228.855469 272.871094 C 219.429688 272.871094 210.007812 272.871094 200.585938 272.871094 C 199.464844 272.871094 198.34375 272.871094 197.21875 272.871094 C 197.175781 272.867188 197.128906 272.867188 197.078125 272.871094 C 195.671875 272.695312 194.292969 272.410156 192.929688 272.035156 C 191.03125 271.339844 189.527344 269.898438 188.777344 267.996094 C 188.382812 266.582031 188.078125 265.152344 187.898438 263.695312 C 187.902344 263.640625 187.902344 263.59375 187.898438 263.550781 C 187.898438 263.40625 187.898438 263.265625 187.898438 263.121094 C 187.898438 262.8125 187.636719 262.554688 187.328125 262.554688 C 187.019531 262.554688 186.761719 262.8125 186.761719 263.121094 C 186.761719 263.265625 186.761719 263.40625 186.761719 263.550781 C 186.757812 263.59375 186.753906 263.640625 186.761719 263.695312 C 186.582031 265.148438 186.304688 266.582031 185.910156 267.996094 C 185.148438 269.921875 183.609375 271.34375 181.695312 272.050781 C 180.351562 272.417969 178.992188 272.699219 177.609375 272.871094 C 177.558594 272.867188 177.511719 272.867188 177.46875 272.871094 C 177.324219 272.871094 177.183594 272.871094 177.039062 272.871094 C 170.675781 272.871094 164.308594 272.871094 157.945312 272.871094 C 148.574219 272.871094 139.199219 272.871094 129.828125 272.871094 C 128.925781 272.871094 128.023438 272.871094 127.121094 272.871094 C 127.121094 270.003906 127.121094 267.136719 127.121094 264.269531 C 127.121094 256.535156 127.121094 248.804688 127.121094 241.070312 C 127.121094 230.824219 127.121094 220.582031 127.121094 210.335938 C 127.121094 199.738281 127.121094 189.144531 127.121094 178.546875 C 127.121094 169.761719 127.121094 160.972656 127.121094 152.1875 C 127.121094 147.375 127.121094 142.558594 127.121094 137.746094 C 127.121094 137.398438 127.121094 137.050781 127.121094 136.699219 C 127.253906 131.808594 127.71875 126.984375 128.878906 122.222656 C 129.902344 118.035156 131.40625 113.972656 133.300781 110.105469 C 137.074219 102.386719 142.507812 95.519531 149.113281 90.03125 C 163.15625 78.375 182.324219 73.796875 200.128906 77.625 C 217.398438 81.339844 232.457031 92.648438 240.734375 108.257812 C 245.367188 116.988281 247.71875 126.835938 247.867188 136.699219 C 247.867188 139.757812 247.867188 142.816406 247.867188 145.875 Z M 247.867188 145.875 " fill-opacity="1" fill-rule="nonzero"/></g><g fill="rgb(0%, 0%, 0%)" fill-opacity="1"><g transform="translate(131.118515, 254.269008)"><g><path d="M 4.132812 -136.410156 C 15.984375 -136.410156 16.808594 -126.628906 16.808594 -99.484375 L 16.808594 -38.304688 C 16.808594 -11.160156 15.984375 -1.378906 4.132812 -1.378906 L 4.132812 0 L 41.199219 0 L 41.199219 -1.378906 C 29.347656 -1.378906 28.523438 -11.160156 28.523438 -38.304688 L 28.523438 -60.628906 C 34.445312 -58.007812 48.089844 -54.152344 60.214844 -54.152344 C 90.804688 -54.152344 107.335938 -75.09375 107.335938 -97.554688 C 107.335938 -122.082031 90.941406 -140.542969 61.589844 -140.542969 C 45.609375 -140.542969 35.824219 -137.789062 20.667969 -137.789062 L 4.132812 -137.789062 Z M 28.523438 -62.003906 L 28.523438 -134.207031 C 36.925781 -137.238281 43.542969 -138.617188 53.738281 -138.617188 C 79.367188 -138.617188 95.488281 -122.355469 95.488281 -97.417969 C 95.488281 -80.882812 85.152344 -56.90625 57.734375 -56.90625 C 45.746094 -56.90625 35.550781 -59.113281 28.523438 -62.003906 Z M 28.523438 -62.003906 "/></g></g></g><g fill="rgb(0%, 0%, 0%)" fill-opacity="1"><g transform="translate(114.250287, 298.305127)"><g><path d="M 0.300781 -7.160156 C 0.769531 -7.160156 0.988281 -7.089844 0.988281 -6.617188 L 0.988281 -0.667969 C 0.988281 -0.210938 0.769531 -0.128906 0.300781 -0.128906 L 0.300781 0 L 2.78125 0 L 2.78125 -0.128906 C 2.308594 -0.128906 2.089844 -0.210938 2.089844 -0.667969 L 2.089844 -3.6875 L 3.527344 -3.6875 C 4.699219 -3.6875 6.167969 -3.9375 6.167969 -5.507812 C 6.167969 -7.109375 4.617188 -7.289062 3.140625 -7.289062 L 0.300781 -7.289062 Z M 3.140625 -7.160156 C 4.429688 -7.160156 5.070312 -6.578125 5.070312 -5.386719 C 5.070312 -4.160156 4.46875 -3.820312 3.160156 -3.820312 L 2.089844 -3.820312 L 2.089844 -7.160156 Z M 3.140625 -7.160156 "/></g></g></g><g fill="rgb(0%, 0%, 0%)" fill-opacity="1"><g transform="translate(125.157661, 298.305127)"><g><path d="M 0.300781 0 L 2.78125 0 L 2.78125 -0.128906 C 2.300781 -0.128906 2.089844 -0.210938 2.089844 -0.667969 L 2.089844 -3.6875 L 2.960938 -3.6875 L 4.707031 -1.148438 C 5.089844 -0.601562 5.546875 0 6.378906 0 L 7.367188 0 L 7.367188 -0.128906 C 6.988281 -0.128906 6.660156 -0.238281 6.359375 -0.667969 L 4.558594 -3.277344 C 4.410156 -3.160156 4.230469 -3.089844 4.039062 -3.089844 C 3.71875 -3.089844 3.371094 -3.277344 3.109375 -3.6875 L 3.527344 -3.6875 C 4.699219 -3.6875 6.160156 -3.9375 6.160156 -5.507812 C 6.160156 -7.109375 4.617188 -7.289062 3.140625 -7.289062 L 0.300781 -7.289062 L 0.300781 -7.160156 C 0.769531 -7.160156 0.988281 -7.089844 0.988281 -6.617188 L 0.988281 -0.667969 C 0.988281 -0.210938 0.769531 -0.128906 0.300781 -0.128906 Z M 2.089844 -3.820312 L 2.089844 -7.160156 L 3.339844 -7.160156 C 4.449219 -7.160156 5.070312 -6.578125 5.070312 -5.5 C 5.070312 -4.160156 4.207031 -3.820312 3.148438 -3.820312 Z M 2.089844 -3.820312 "/></g></g></g><g fill="rgb(0%, 0%, 0%)" fill-opacity="1"><g transform="translate(136.914703, 298.305127)"><g><path d="M 1.710938 0 L 1.710938 -0.128906 C 1.289062 -0.128906 0.988281 -0.371094 1.167969 -0.800781 L 1.828125 -2.390625 L 4.707031 -2.390625 L 5.277344 -1 C 5.480469 -0.519531 5.449219 -0.128906 4.929688 -0.128906 L 4.660156 -0.128906 L 4.660156 0 L 7.46875 0 L 7.46875 -0.128906 C 6.96875 -0.128906 6.660156 -0.351562 6.378906 -1.007812 L 3.75 -7.289062 L 2 -7.289062 L 2 -7.160156 C 2.398438 -7.160156 2.757812 -7.058594 2.917969 -6.660156 L 3.199219 -5.976562 L 1.019531 -0.761719 C 0.871094 -0.398438 0.480469 -0.128906 0.148438 -0.128906 L 0.148438 0 Z M 3.269531 -5.828125 L 4.648438 -2.519531 L 1.890625 -2.519531 Z M 3.269531 -5.828125 "/></g></g></g><g fill="rgb(0%, 0%, 0%)" fill-opacity="1"><g transform="translate(148.821684, 298.305127)"><g><path d="M 0.148438 -7.289062 L 0.148438 -7.160156 C 0.71875 -7.160156 0.839844 -7.039062 1.007812 -6.707031 C 1.578125 -5.527344 2.75 -3.148438 2.910156 -2.820312 L 2.910156 -0.667969 C 2.910156 -0.210938 2.6875 -0.128906 2.210938 -0.128906 L 2.210938 0 L 4.6875 0 L 4.6875 -0.128906 C 4.238281 -0.128906 4.019531 -0.199219 4 -0.609375 L 4.007812 -3.339844 L 5.546875 -6.738281 C 5.707031 -7.066406 5.796875 -7.160156 6.308594 -7.160156 L 6.308594 -7.289062 L 4.867188 -7.289062 L 4.867188 -7.160156 C 5.410156 -7.160156 5.539062 -7.046875 5.359375 -6.628906 L 3.867188 -3.371094 C 3.859375 -3.371094 3.847656 -3.371094 3.828125 -3.371094 L 2.25 -6.617188 C 2.007812 -7.109375 2.28125 -7.160156 2.960938 -7.160156 L 2.960938 -7.289062 Z M 0.148438 -7.289062 "/></g></g></g><g fill="rgb(0%, 0%, 0%)" fill-opacity="1"><g transform="translate(159.569128, 298.305127)"><g><path d="M 2.789062 0 L 2.789062 -0.121094 C 2.320312 -0.121094 2.097656 -0.199219 2.097656 -0.648438 L 2.097656 -3.757812 L 3.257812 -3.757812 C 4.269531 -3.757812 4.410156 -3.359375 4.410156 -2.109375 L 4.539062 -2.109375 L 4.539062 -5.417969 L 4.410156 -5.417969 C 4.410156 -4.300781 4.269531 -3.898438 3.257812 -3.890625 L 2.097656 -3.890625 L 2.097656 -7.160156 L 3.277344 -7.160156 C 4.328125 -7.136719 5.027344 -7.058594 5.558594 -5.699219 L 5.6875 -5.699219 L 5.160156 -7.289062 L 0.300781 -7.289062 L 0.300781 -7.160156 C 0.78125 -7.160156 0.988281 -7.078125 0.988281 -6.617188 L 0.988281 -0.667969 C 0.988281 -0.210938 0.78125 -0.128906 0.300781 -0.128906 L 0.300781 0 Z M 2.789062 0 "/></g></g></g><g fill="rgb(0%, 0%, 0%)" fill-opacity="1"><g transform="translate(169.796769, 298.305127)"><g><path d="M 0.5 -3.660156 C 0.5 -1.570312 2.097656 0.121094 4.078125 0.121094 C 6.058594 0.121094 7.6875 -1.570312 7.6875 -3.660156 C 7.6875 -5.738281 6.058594 -7.398438 4.078125 -7.398438 C 2.097656 -7.398438 0.5 -5.738281 0.5 -3.660156 Z M 3.980469 -7.257812 C 5.769531 -7.257812 6.488281 -5.410156 6.488281 -3.550781 C 6.488281 -1.628906 5.777344 -0.0195312 4.179688 -0.0195312 C 2.4375 -0.0195312 1.699219 -1.839844 1.699219 -3.769531 C 1.699219 -5.617188 2.46875 -7.257812 3.980469 -7.257812 Z M 3.980469 -7.257812 "/></g></g></g><g fill="rgb(0%, 0%, 0%)" fill-opacity="1"><g transform="translate(182.273529, 298.305127)"><g><path d="M 0.300781 0 L 2.78125 0 L 2.78125 -0.128906 C 2.300781 -0.128906 2.089844 -0.210938 2.089844 -0.667969 L 2.089844 -3.6875 L 2.960938 -3.6875 L 4.707031 -1.148438 C 5.089844 -0.601562 5.546875 0 6.378906 0 L 7.367188 0 L 7.367188 -0.128906 C 6.988281 -0.128906 6.660156 -0.238281 6.359375 -0.667969 L 4.558594 -3.277344 C 4.410156 -3.160156 4.230469 -3.089844 4.039062 -3.089844 C 3.71875 -3.089844 3.371094 -3.277344 3.109375 -3.6875 L 3.527344 -3.6875 C 4.699219 -3.6875 6.160156 -3.9375 6.160156 -5.507812 C 6.160156 -7.109375 4.617188 -7.289062 3.140625 -7.289062 L 0.300781 -7.289062 L 0.300781 -7.160156 C 0.769531 -7.160156 0.988281 -7.089844 0.988281 -6.617188 L 0.988281 -0.667969 C 0.988281 -0.210938 0.769531 -0.128906 0.300781 -0.128906 Z M 2.089844 -3.820312 L 2.089844 -7.160156 L 3.339844 -7.160156 C 4.449219 -7.160156 5.070312 -6.578125 5.070312 -5.5 C 5.070312 -4.160156 4.207031 -3.820312 3.148438 -3.820312 Z M 2.089844 -3.820312 "/></g></g></g><g fill="rgb(0%, 0%, 0%)" fill-opacity="1"><g transform="translate(194.03057, 298.305127)"><g><path d="M 0.5 -0.441406 C 0.5 -0.128906 0.75 0.121094 1.058594 0.121094 C 1.371094 0.121094 1.621094 -0.128906 1.621094 -0.441406 C 1.621094 -0.75 1.371094 -1 1.058594 -1 C 0.75 -1 0.5 -0.75 0.5 -0.441406 Z M 0.5 -0.441406 "/></g></g></g><g fill="rgb(0%, 0%, 0%)" fill-opacity="1"><g transform="translate(200.439719, 298.305127)"><g><path d="M 0.5 -3.660156 C 0.5 -1.570312 2.097656 0.121094 4.078125 0.121094 C 6.058594 0.121094 7.6875 -1.570312 7.6875 -3.660156 C 7.6875 -5.738281 6.058594 -7.398438 4.078125 -7.398438 C 2.097656 -7.398438 0.5 -5.738281 0.5 -3.660156 Z M 3.980469 -7.257812 C 5.769531 -7.257812 6.488281 -5.410156 6.488281 -3.550781 C 6.488281 -1.628906 5.777344 -0.0195312 4.179688 -0.0195312 C 2.4375 -0.0195312 1.699219 -1.839844 1.699219 -3.769531 C 1.699219 -5.617188 2.46875 -7.257812 3.980469 -7.257812 Z M 3.980469 -7.257812 "/></g></g></g><g fill="rgb(0%, 0%, 0%)" fill-opacity="1"><g transform="translate(212.916479, 298.305127)"><g><path d="M 0.25 -7.289062 L 0.25 -7.160156 C 0.699219 -7.160156 1.039062 -7.039062 1.28125 -6.636719 L 1.28125 -0.667969 C 1.28125 -0.140625 1.050781 -0.128906 0.570312 -0.128906 L 0.570312 0 L 2.121094 0 L 2.121094 -0.128906 C 1.648438 -0.128906 1.410156 -0.140625 1.410156 -0.667969 L 1.410156 -6.457031 L 6.039062 0 L 6.167969 0 L 6.160156 -6.667969 C 6.179688 -7.148438 6.410156 -7.160156 6.867188 -7.160156 L 6.867188 -7.289062 L 5.328125 -7.289062 L 5.328125 -7.160156 C 5.796875 -7.160156 6.027344 -7.148438 6.027344 -6.617188 L 6.039062 -1.890625 L 2.167969 -7.289062 Z M 0.25 -7.289062 "/></g></g></g><g fill="rgb(0%, 0%, 0%)" fill-opacity="1"><g transform="translate(224.323663, 298.305127)"><g><path d="M 0.300781 -7.160156 C 0.78125 -7.160156 0.988281 -7.078125 0.988281 -6.617188 L 0.988281 -0.558594 C 0.960938 -0.128906 0.738281 -0.128906 0.300781 -0.128906 L 0.300781 0 L 5.707031 0 L 6.417969 -2.871094 L 6.289062 -2.871094 C 5.828125 -1.339844 5.148438 -0.128906 3.4375 -0.128906 C 2.417969 -0.128906 2.097656 -0.179688 2.097656 -0.660156 L 2.097656 -6.617188 C 2.097656 -7.078125 2.308594 -7.160156 2.789062 -7.160156 L 2.789062 -7.289062 L 0.300781 -7.289062 Z M 0.300781 -7.160156 "/></g></g></g><g fill="rgb(0%, 0%, 0%)" fill-opacity="1"><g transform="translate(235.281025, 298.305127)"><g><path d="M 0.988281 -0.667969 C 0.988281 -0.199219 0.78125 -0.128906 0.300781 -0.128906 L 0.300781 0 L 2.789062 0 L 2.78125 -0.128906 C 2.308594 -0.128906 2.089844 -0.199219 2.089844 -0.667969 L 2.089844 -6.617188 C 2.089844 -7.089844 2.308594 -7.160156 2.789062 -7.160156 L 2.789062 -7.289062 L 0.300781 -7.289062 L 0.300781 -7.160156 C 0.78125 -7.160156 0.988281 -7.089844 0.988281 -6.617188 Z M 0.988281 -0.667969 "/></g></g></g><g fill="rgb(0%, 0%, 0%)" fill-opacity="1"><g transform="translate(242.659798, 298.305127)"><g><path d="M 0.25 -7.289062 L 0.25 -7.160156 C 0.699219 -7.160156 1.039062 -7.039062 1.28125 -6.636719 L 1.28125 -0.667969 C 1.28125 -0.140625 1.050781 -0.128906 0.570312 -0.128906 L 0.570312 0 L 2.121094 0 L 2.121094 -0.128906 C 1.648438 -0.128906 1.410156 -0.140625 1.410156 -0.667969 L 1.410156 -6.457031 L 6.039062 0 L 6.167969 0 L 6.160156 -6.667969 C 6.179688 -7.148438 6.410156 -7.160156 6.867188 -7.160156 L 6.867188 -7.289062 L 5.328125 -7.289062 L 5.328125 -7.160156 C 5.796875 -7.160156 6.027344 -7.148438 6.027344 -6.617188 L 6.039062 -1.890625 L 2.167969 -7.289062 Z M 0.25 -7.289062 "/></g></g></g><g fill="rgb(0%, 0%, 0%)" fill-opacity="1"><g transform="translate(254.066982, 298.305127)"><g><path d="M 0.300781 0 L 5.707031 0 L 6.417969 -2.871094 L 6.289062 -2.871094 C 5.828125 -1.339844 5.148438 -0.128906 3.4375 -0.128906 C 2.417969 -0.128906 2.097656 -0.210938 2.097656 -0.667969 L 2.097656 -3.757812 L 3.25 -3.757812 C 4.398438 -3.757812 4.398438 -3.128906 4.398438 -2.109375 L 4.527344 -2.109375 L 4.527344 -5.417969 L 4.398438 -5.417969 C 4.398438 -4.410156 4.328125 -3.898438 3.25 -3.890625 L 2.097656 -3.890625 L 2.097656 -6.617188 C 2.097656 -7.089844 2.507812 -7.148438 3.949219 -7.148438 C 5.078125 -7.148438 5.5 -6.847656 5.867188 -5.707031 L 6 -5.707031 L 5.46875 -7.289062 L 0.300781 -7.289062 L 0.300781 -7.160156 C 0.78125 -7.160156 0.988281 -7.089844 0.988281 -6.617188 L 1 -0.570312 C 0.960938 -0.199219 0.738281 -0.128906 0.300781 -0.128906 Z M 0.300781 0 "/></g></g></g></svg>